Coordinates
version=1
nRows=15
nColumns=46
inDegrees=yes

Units are S.I. units (second, meters, Newtons, ...)
Angles are in degrees.

endheader
time	pelvis_tilt	pelvis_list	pelvis_rotation	pelvis_tx	pelvis_ty	pelvis_tz	bb_angle	bb_tx	bb_ty	bb_tz	hip_flexion_r	hip_adduction_r	hip_rotation_r	knee_angle_r	knee_angle_r_beta	ankle_angle_r	subtalar_angle_r	mtp_angle_r	crank_angle_r	hip_flexion_l	hip_adduction_l	hip_rotation_l	knee_angle_l	knee_angle_l_beta	ankle_angle_l	subtalar_angle_l	mtp_angle_l	crank_angle_l	lumbar_extension	lumbar_bending	lumbar_rotation	arm_flex_r	arm_add_r	arm_rot_r	elbow_flex_r	pro_sup_r	wrist_flex_r	wrist_dev_r	arm_flex_l	arm_add_l	arm_rot_l	elbow_flex_l	pro_sup_l	wrist_flex_l	wrist_dev_l
      7.50000000	    -12.15106590	     -2.68082573	     -5.23488346	      0.20074725	      1.05529330	     -0.24319457	      0.00000000	      0.50000000	      0.00000000	      0.25000000	     61.38566170	      0.91820455	      2.68121188	     63.85841902	      1.11453967	     19.19874906	      4.63814702	      0.00000000	      0.00000000	     51.25252365	     -7.85063085	      4.59651632	     89.59328496	      1.56369781	     -5.64330194	    -12.11195299	      0.00000000	      0.00000000	    -71.10045540	      4.70279188	      0.86289748	     89.33217312	    -22.41917651	     33.63849993	     74.75015424	     38.23097889	      0.00000000	      0.00000000	     68.35913269	    -43.09765678	     10.68357841	     83.40526579	     46.75732902	      0.00000000	      0.00000000
      7.50500000	    -11.94243103	     -1.97249359	     -5.01001419	      0.20053575	      1.05404978	     -0.24203206	      0.00000000	      0.50000000	      0.00000000	      0.25000000	     60.04814232	      0.34530210	      3.07152949	     61.86037546	      1.07966723	     18.44451046	      4.80179285	      0.00000000	      0.00000000	     52.26008417	     -7.24033962	      4.44426317	     91.97524107	      1.60527079	     -5.27569606	    -12.14251355	      0.00000000	      0.00000000	    -71.03915695	      4.25470146	     -0.01471842	     89.28681765	    -22.54444997	     33.53701763	     74.78190963	     38.24647751	      0.00000000	      0.00000000	     68.38050781	    -42.94268470	     10.68384774	     83.36019716	     46.75021737	      0.00000000	      0.00000000
      7.51000000	    -11.67219321	     -1.57734786	     -4.73841990	      0.20029872	      1.05347770	     -0.24078383	      0.00000000	      0.50000000	      0.00000000	      0.25000000	     58.42070689	     -0.03652642	      3.13919681	     59.47123810	      1.03796892	     16.80707073	      4.41422115	      0.00000000	      0.00000000	     53.16970412	     -6.81764426	      4.69943964	     94.26728240	      1.64527445	     -3.71158509	    -11.11952067	      0.00000000	      0.00000000	    -71.19247073	      3.95948186	     -0.76933813	     89.30508017	    -22.41302212	     33.90494881	     74.38570892	     38.22423326	      0.00000000	      0.00000000	     69.17677527	    -43.32362901	     10.51390046	     83.29581450	     46.75991691	      0.00000000	      0.00000000
      7.51500000	    -11.55090072	     -1.03441951	     -4.40091733	      0.20008124	      1.05249939	     -0.23950276	      0.00000000	      0.50000000	      0.00000000	      0.25000000	     56.98385012	     -0.56283718	      3.27599044	     57.24808385	      0.99916755	     15.63980411	      4.09922035	      0.00000000	      0.00000000	     54.33371541	     -6.31920415	      4.75639141	     96.50346095	      1.68430313	     -2.94215477	    -10.67835559	      0.00000000	      0.00000000	    -71.13191989	      3.64413761	     -1.59714934	     89.26484795	    -22.38046419	     33.92654725	     74.15099763	     38.20851000	      0.00000000	      0.00000000	     69.65177710	    -43.45200339	     10.56029487	     83.31555830	     46.79530448	      0.00000000	      0.00000000
      7.52000000	    -11.53289845	     -0.35537453	     -4.03687324	      0.19989536	      1.05134682	     -0.23830516	      0.00000000	      0.50000000	      0.00000000	      0.25000000	     55.67266615	     -1.19278417	      3.56004482	     55.12485384	      0.96211020	     14.46987224	      4.37601382	      0.00000000	      0.00000000	     55.62319506	     -5.67447822	      4.67208240	     98.62186383	      1.72127624	     -2.38429245	    -10.79845615	      0.00000000	      0.00000000	    -70.93418481	      3.25760405	     -2.44493802	     89.20701328	    -22.50900993	     33.83898625	     74.08955248	     38.20908149	      0.00000000	      0.00000000	     69.88797706	    -43.40356644	     10.57158706	     83.33642150	     46.80219659	      0.00000000	      0.00000000
      7.52500000	    -11.52985907	      0.11878520	     -3.58033984	      0.19949593	      1.05026093	     -0.23706027	      0.00000000	      0.50000000	      0.00000000	      0.25000000	     54.31822892	     -1.71729536	      3.58121997	     52.97161314	      0.92452906	     12.87396628	      3.60181765	      0.00000000	      0.00000000	     57.05217376	     -5.19857946	      4.80317932	    100.72047933	      1.75790399	     -1.73351976	    -10.28590592	      0.00000000	      0.00000000	    -70.78734792	      2.97436374	     -3.28318687	     89.17042183	    -22.45301705	     33.88989423	     73.74574680	     38.19418456	      0.00000000	      0.00000000	     70.62872764	    -43.57513030	     10.74793198	     83.40281872	     46.84288372	      0.00000000	      0.00000000
      7.53000000	    -11.53913810	      0.52577705	     -3.06254000	      0.19900148	      1.04922734	     -0.23573335	      0.00000000	      0.50000000	      0.00000000	      0.25000000	     52.90908735	     -2.19111566	      3.62012807	     50.77822488	      0.88624721	     11.40874646	      2.85011145	      0.00000000	      0.00000000	     58.55928548	     -4.72256469	      5.09178383	    102.73772628	      1.79311159	     -1.17402189	     -9.65870959	      0.00000000	      0.00000000	    -70.60865476	      2.75298101	     -4.03951195	     89.10651703	    -22.33390304	     33.76076722	     73.33051931	     38.19691204	      0.00000000	      0.00000000	     71.29199705	    -43.82732154	     11.26074210	     83.38660596	     46.91078026	      0.00000000	      0.00000000
      7.53500000	    -11.56519832	      0.97962901	     -2.55531392	      0.19866880	      1.04811238	     -0.23456842	      0.00000000	      0.50000000	      0.00000000	      0.25000000	     51.54468649	     -2.72810780	      3.66751826	     48.73935536	      0.85066223	     10.02682047	      2.38935902	      0.00000000	      0.00000000	     60.10559362	     -4.24743237	      5.19029680	    104.65932005	      1.82664973	     -0.77842579	     -9.44357861	      0.00000000	      0.00000000	    -70.40516051	      2.42868731	     -4.86142781	     88.99511220	    -22.35009783	     33.65377439	     73.00801572	     38.20714455	      0.00000000	      0.00000000	     71.99997698	    -43.88142040	     11.55126614	     83.49304343	     46.96316271	      0.00000000	      0.00000000
      7.54000000	    -11.72326026	      1.59563453	     -2.13435031	      0.19847375	      1.04696309	     -0.23358809	      0.00000000	      0.50000000	      0.00000000	      0.25000000	     50.33260737	     -3.36777643	      3.91160160	     46.78855384	      0.81661432	      9.19263614	      2.44528752	      0.00000000	      0.00000000	     61.77889462	     -3.70219136	      5.10769344	    106.43520111	      1.85764470	     -0.54074429	     -9.38110897	      0.00000000	      0.00000000	    -70.06503164	      2.04305899	     -5.70067035	     88.83622373	    -22.45109485	     33.48009009	     72.98738267	     38.22720371	      0.00000000	      0.00000000	     72.16254997	    -43.76992975	     11.63544061	     83.51541446	     46.97159202	      0.00000000	      0.00000000
      7.54500000	    -11.91738048	      1.68975881	     -1.62670194	      0.19814232	      1.04587004	     -0.23235367	      0.00000000	      0.50000000	      0.00000000	      0.25000000	     49.04198363	     -3.61166407	      3.66002385	     44.71270173	      0.78038386	      7.29215898	      1.29751660	      0.00000000	      0.00000000	     63.64104039	     -3.51915735	      5.57617660	    108.24122710	      1.88916580	     -0.10937218	     -8.53510447	      0.00000000	      0.00000000	    -69.77353530	      1.94503794	     -6.20098119	     88.74873011	    -22.22526073	     33.43206256	     72.43328471	     38.28048966	      0.00000000	      0.00000000	     73.01048657	    -44.09013559	     12.25428991	     83.60390142	     47.05501616	      0.00000000	      0.00000000
      7.55000000	    -12.26742015	      2.02272101	     -1.17706547	      0.19802596	      1.04462867	     -0.23131067	      0.00000000	      0.50000000	      0.00000000	      0.25000000	     48.01944792	     -4.05217112	      3.64375657	     42.87679532	      0.74834125	      6.06610618	      1.27885701	      0.00000000	      0.00000000	     65.63147753	     -3.17549763	      5.74208543	    109.86058709	      1.91742896	      0.03137697	     -8.23715621	      0.00000000	      0.00000000	    -69.39315637	      1.70653271	     -6.73687790	     88.31506614	    -22.12170264	     32.36437097	     72.88044422	     38.63391452	      0.00000000	      0.00000000	     73.45132861	    -43.79133986	     11.87348973	     83.88776025	     46.98306376	      0.00000000	      0.00000000
      7.55500000	    -12.40609370	      2.50856857	     -0.69351423	      0.19796343	      1.04387235	     -0.23040549	      0.00000000	      0.50000000	      0.00000000	      0.25000000	     46.77822513	     -4.68631559	      3.68257637	     41.16007394	      0.71837881	      5.16809359	      1.30026054	      0.00000000	      0.00000000	     67.34848217	     -2.65859884	      5.78306812	    111.29196561	      1.94241123	     -0.01005039	     -7.96613007	      0.00000000	      0.00000000	    -69.08408418	      1.44836527	     -7.49999495	     88.05303142	    -22.15989875	     32.43810402	     72.72386013	     38.66422059	      0.00000000	      0.00000000	     73.68128736	    -43.70666733	     12.09390121	     83.89315712	     46.99881681	      0.00000000	      0.00000000
      7.56000000	    -12.51503562	      2.54202261	     -0.19601877	      0.19774334	      1.04336066	     -0.22925035	      0.00000000	      0.50000000	      0.00000000	      0.25000000	     45.45147074	     -4.85410156	      3.45281385	     39.39339610	      0.68754447	      3.35372132	      0.15391747	      0.00000000	      0.00000000	     69.14447930	     -2.39313215	      6.35164714	    112.68549441	      1.96673290	      0.18858507	     -7.07268061	      0.00000000	      0.00000000	    -68.93173819	      1.33193052	     -7.98188870	     88.05651941	    -22.04249448	     32.91320102	     71.93111689	     38.75758996	      0.00000000	      0.00000000	     74.74297566	    -44.08335023	     13.12418710	     83.71210306	     47.06313399	      0.00000000	      0.00000000
      7.56500000	    -12.68710340	      2.84313650	      0.21899942	      0.19760911	      1.04286375	     -0.22809986	      0.00000000	      0.50000000	      0.00000000	      0.25000000	     44.34052272	     -5.23360450	      3.41433269	     37.91492847	      0.66174034	      2.03674629	     -0.14637930	      0.00000000	      0.00000000	     70.96077785	     -2.08449476	      6.55814420	    113.91519320	      1.98819519	      0.49192245	     -6.74139647	      0.00000000	      0.00000000	    -68.69546868	      0.99888847	     -8.56291248	     87.81748741	    -22.08454034	     32.82978642	     71.62178915	     39.03221978	      0.00000000	      0.00000000	     75.64306585	    -44.21850293	     14.14371094	     83.44268190	     47.13023970	      0.00000000	      0.00000000
      7.57000000	    -12.92525570	      3.28407661	      0.69120085	      0.19759393	      1.04260139	     -0.22721065	      0.00000000	      0.50000000	      0.00000000	      0.25000000	     43.33496875	     -5.82375638	      3.34090159	     36.59264251	      0.63866209	      1.18914707	      0.02270249	      0.00000000	      0.00000000	     72.79158306	     -1.62921586	      6.51890939	    114.90097502	      2.00540033	      0.21358826	     -6.36766965	      0.00000000	      0.00000000	    -68.47401478	      0.70819598	     -9.26881842	     87.55439952	    -22.18548002	     32.73657907	     71.62820062	     39.07193381	      0.00000000	      0.00000000	     76.02300569	    -44.08309837	     14.16824492	     83.51590916	     47.13969981	      0.00000000	      0.00000000
